<svg xmlns="http://www.w3.org/2000/svg" viewBox="0 0 317.825 317.825" width="20" height="15"><path d="M301.934 143.021H15.891C7.119 143.021 0 150.14 0 158.912s7.119 15.891 15.891 15.891h286.042c8.74 0 15.891-7.119 15.891-15.891.001-8.772-7.15-15.891-15.89-15.891zM15.891 79.456h286.042c8.74 0 15.891-7.119 15.891-15.891s-7.151-15.891-15.891-15.891H15.891C7.119 47.674 0 54.793 0 63.565s7.119 15.891 15.891 15.891zm286.043 158.913H15.891C7.119 238.369 0 245.52 0 254.26s7.119 15.891 15.891 15.891h286.042c8.74 0 15.891-7.151 15.891-15.891.001-8.74-7.15-15.891-15.89-15.891z" fill="#8d9aaa"/></svg>